<svg width="1359" height="268" viewBox="0 0 1359 268" fill="none" xmlns="http://www.w3.org/2000/svg">
<g opacity="0.12">
<path d="M48.7588 261L48.7588 96.083H51.4932L114.384 246.815L148.734 246.815L211.454 96.083H214.188L214.188 261H262.04L262.04 14.3936H201.371L133.012 180.165H129.936L61.7471 14.3936L0.907227 14.3936L0.907227 261H48.7588ZM400.468 224.428C373.808 224.428 358.769 203.407 358.769 166.664C358.769 130.434 373.979 109.071 400.468 109.071C426.786 109.071 442.167 130.434 442.167 166.664C442.167 203.236 426.957 224.428 400.468 224.428ZM400.468 265.102C458.402 265.102 493.266 228.358 493.266 166.664C493.266 105.482 457.89 68.3975 400.468 68.3975C343.046 68.3975 307.67 105.653 307.67 166.664C307.67 228.358 342.533 265.102 400.468 265.102ZM601.444 263.905C627.592 263.905 648.954 251.771 659.037 231.435H662.113V261H710.307V0.550781H660.575V102.577H657.67C647.929 81.7275 626.908 69.4229 601.444 69.4229C554.105 69.4229 524.711 106.508 524.711 166.493C524.711 226.649 553.935 263.905 601.444 263.905ZM618.363 111.122C644.853 111.122 661.088 132.484 661.088 166.835C661.088 201.356 645.023 222.377 618.363 222.377C591.703 222.377 575.81 201.527 575.81 166.664C575.81 132.143 591.874 111.122 618.363 111.122ZM843.437 106.508C866.679 106.508 881.718 122.06 882.743 147.011H802.421C804.13 122.572 820.365 106.508 843.437 106.508ZM883.769 207.338C878.471 219.813 864.97 226.82 845.316 226.82C819.34 226.82 802.934 209.389 802.25 181.361V178.798H931.62V163.588C931.62 103.773 898.808 68.3975 843.266 68.3975C787.211 68.3975 752.689 106.337 752.689 167.689C752.689 228.871 786.527 265.102 843.949 265.102C890.092 265.102 922.562 242.885 930.082 207.338H883.769ZM974.174 261H1023.91V0.550781L974.174 0.550781V261ZM1159.77 192.47C1161.65 238.441 1199.76 267.323 1258.55 267.323C1320.41 267.323 1358.52 236.903 1358.52 187.172C1358.52 148.891 1337.16 127.528 1287.6 117.104L1257.87 110.78C1228.98 104.628 1217.19 95.9121 1217.19 80.7021C1217.19 61.9033 1234.28 49.9404 1260.09 49.9404C1285.04 49.9404 1303.15 62.9287 1305.55 82.4111H1354.08C1352.54 38.4902 1314.09 8.07031 1259.75 8.07031C1202.84 8.07031 1165.41 38.6611 1165.41 85.1455C1165.41 122.743 1187.46 146.156 1232.4 155.556L1264.53 162.392C1294.78 168.886 1307.08 177.943 1307.08 193.666C1307.08 212.294 1288.11 225.282 1261.28 225.282C1232.23 225.282 1212.06 212.465 1209.67 192.47L1159.77 192.47Z" fill="#0081FF"/>
<path d="M48.7588 261L48.7588 96.083H51.4932L114.384 246.815L148.734 246.815L211.454 96.083H214.188L214.188 261H262.04L262.04 14.3936H201.371L133.012 180.165H129.936L61.7471 14.3936L0.907227 14.3936L0.907227 261H48.7588ZM400.468 224.428C373.808 224.428 358.769 203.407 358.769 166.664C358.769 130.434 373.979 109.071 400.468 109.071C426.786 109.071 442.167 130.434 442.167 166.664C442.167 203.236 426.957 224.428 400.468 224.428ZM400.468 265.102C458.402 265.102 493.266 228.358 493.266 166.664C493.266 105.482 457.89 68.3975 400.468 68.3975C343.046 68.3975 307.67 105.653 307.67 166.664C307.67 228.358 342.533 265.102 400.468 265.102ZM601.444 263.905C627.592 263.905 648.954 251.771 659.037 231.435H662.113V261H710.307V0.550781H660.575V102.577H657.67C647.929 81.7275 626.908 69.4229 601.444 69.4229C554.105 69.4229 524.711 106.508 524.711 166.493C524.711 226.649 553.935 263.905 601.444 263.905ZM618.363 111.122C644.853 111.122 661.088 132.484 661.088 166.835C661.088 201.356 645.023 222.377 618.363 222.377C591.703 222.377 575.81 201.527 575.81 166.664C575.81 132.143 591.874 111.122 618.363 111.122ZM843.437 106.508C866.679 106.508 881.718 122.06 882.743 147.011H802.421C804.13 122.572 820.365 106.508 843.437 106.508ZM883.769 207.338C878.471 219.813 864.97 226.82 845.316 226.82C819.34 226.82 802.934 209.389 802.25 181.361V178.798H931.62V163.588C931.62 103.773 898.808 68.3975 843.266 68.3975C787.211 68.3975 752.689 106.337 752.689 167.689C752.689 228.871 786.527 265.102 843.949 265.102C890.092 265.102 922.562 242.885 930.082 207.338H883.769ZM974.174 261H1023.91V0.550781L974.174 0.550781V261ZM1159.77 192.47C1161.65 238.441 1199.76 267.323 1258.55 267.323C1320.41 267.323 1358.52 236.903 1358.52 187.172C1358.52 148.891 1337.16 127.528 1287.6 117.104L1257.87 110.78C1228.98 104.628 1217.19 95.9121 1217.19 80.7021C1217.19 61.9033 1234.28 49.9404 1260.09 49.9404C1285.04 49.9404 1303.15 62.9287 1305.55 82.4111H1354.08C1352.54 38.4902 1314.09 8.07031 1259.75 8.07031C1202.84 8.07031 1165.41 38.6611 1165.41 85.1455C1165.41 122.743 1187.46 146.156 1232.4 155.556L1264.53 162.392C1294.78 168.886 1307.08 177.943 1307.08 193.666C1307.08 212.294 1288.11 225.282 1261.28 225.282C1232.23 225.282 1212.06 212.465 1209.67 192.47L1159.77 192.47Z" fill="black" fill-opacity="0.2"/>
</g>
</svg>
